<svg xmlns="http://www.w3.org/2000/svg" width="128" height="128" viewBox="0 0 128 128">
    <defs>
        <linearGradient id="grad1" x1="0%" y1="0%" x2="100%" y2="100%">
            <stop offset="0%" style="stop-color:#6366f1;stop-opacity:1" />
            <stop offset="50%" style="stop-color:#7c3aed;stop-opacity:1" />
            <stop offset="100%" style="stop-color:#8b5cf6;stop-opacity:1" />
        </linearGradient>
        <linearGradient id="wandGrad" x1="0%" y1="0%" x2="100%" y2="100%">
            <stop offset="0%" style="stop-color:#ffffff;stop-opacity:1" />
            <stop offset="100%" style="stop-color:#f1f5f9;stop-opacity:1" />
        </linearGradient>
        <filter id="shadow" x="-20%" y="-20%" width="140%" height="140%">
            <feDropShadow dx="2" dy="4" stdDeviation="4" flood-opacity="0.3"/>
        </filter>
        <filter id="glow" x="-50%" y="-50%" width="200%" height="200%">
            <feGaussianBlur stdDeviation="2" result="coloredBlur"/>
            <feMerge> 
                <feMergeNode in="coloredBlur"/>
                <feMergeNode in="SourceGraphic"/>
            </feMerge>
        </filter>
    </defs>
    
    <!-- Background circle -->
    <circle cx="64" cy="64" r="56" fill="url(#grad1)" stroke="#4f46e5" stroke-width="2" filter="url(#shadow)"/>
    
    <!-- Inner highlight -->
    <circle cx="64" cy="64" r="52" fill="none" stroke="rgba(255,255,255,0.2)" stroke-width="1"/>
    
    <!-- Magic wand icon -->
    <g transform="translate(20, 16)">
        <!-- Wand stick with gradient -->
        <line x1="16" y1="72" x2="72" y2="16" stroke="url(#wandGrad)" stroke-width="8" stroke-linecap="round" filter="url(#glow)"/>
        
        <!-- Wand stick outline -->
        <line x1="16" y1="72" x2="72" y2="16" stroke="white" stroke-width="6" stroke-linecap="round"/>
        
        <!-- Wand tip -->
        <circle cx="72" cy="16" r="6" fill="white" filter="url(#glow)"/>
        <circle cx="72" cy="16" r="4" fill="#fbbf24"/>
        
        <!-- Magic sparkles with glow -->
        <g stroke="white" stroke-width="3" fill="white" filter="url(#glow)">
            <!-- Large sparkle -->
            <path d="M82 8 L86 12 L82 16 L78 12 Z"/>
            
            <!-- Medium sparkles -->
            <path d="M4 60 L8 64 L4 68 L0 64 Z"/>
            <path d="M80 44 L83 47 L80 50 L77 47 Z"/>
            
            <!-- Small sparkles -->
            <circle cx="88" cy="32" r="2.5"/>
            <circle cx="20" cy="4" r="2.5"/>
            <circle cx="8" cy="84" r="3"/>
            <circle cx="84" cy="80" r="2"/>
            <circle cx="32" cy="8" r="1.5"/>
            <circle cx="92" cy="56" r="1.5"/>
            
            <!-- Tiny sparkles -->
            <circle cx="44" cy="92" r="1"/>
            <circle cx="96" cy="24" r="1"/>
            <circle cx="12" cy="36" r="1"/>
            <circle cx="68" cy="4" r="1"/>
            
            <!-- Star-shaped sparkles -->
            <path d="M32 88 L33.5 89.5 L32 91 L30.5 89.5 Z"/>
            <path d="M88 68 L89.5 69.5 L88 71 L86.5 69.5 Z"/>
            <path d="M8 24 L9.5 25.5 L8 27 L6.5 25.5 Z"/>
        </g>
        
        <!-- Wand handle details -->
        <circle cx="16" cy="72" r="4" fill="white" opacity="0.9"/>
        <circle cx="16" cy="72" r="2" fill="#e5e7eb"/>
        
        <!-- Additional magical effects -->
        <g opacity="0.6">
            <!-- Magical trail -->
            <circle cx="44" cy="44" r="1" fill="white"/>
            <circle cx="52" cy="36" r="0.8" fill="white"/>
            <circle cx="36" cy="52" r="0.8" fill="white"/>
            <circle cx="60" cy="28" r="0.6" fill="white"/>
            <circle cx="28" cy="60" r="0.6" fill="white"/>
        </g>
    </g>
    
    <!-- Outer glow ring -->
    <circle cx="64" cy="64" r="58" fill="none" stroke="rgba(99, 102, 241, 0.3)" stroke-width="1" opacity="0.5"/>
</svg>
