<svg xmlns="http://www.w3.org/2000/svg" width="48" height="48" viewBox="0 0 48 48">
    <defs>
        <linearGradient id="grad1" x1="0%" y1="0%" x2="100%" y2="100%">
            <stop offset="0%" style="stop-color:#6366f1;stop-opacity:1" />
            <stop offset="100%" style="stop-color:#8b5cf6;stop-opacity:1" />
        </linearGradient>
        <filter id="shadow" x="-20%" y="-20%" width="140%" height="140%">
            <feDropShadow dx="1" dy="2" stdDeviation="2" flood-opacity="0.3"/>
        </filter>
    </defs>
    
    <!-- Background circle -->
    <circle cx="24" cy="24" r="20" fill="url(#grad1)" stroke="#4f46e5" stroke-width="1" filter="url(#shadow)"/>
    
    <!-- Magic wand icon -->
    <g transform="translate(8, 6)">
        <!-- Wand stick -->
        <line x1="6" y1="28" x2="26" y2="8" stroke="white" stroke-width="3" stroke-linecap="round"/>
        
        <!-- Wand tip -->
        <circle cx="26" cy="8" r="2.5" fill="white"/>
        
        <!-- Magic sparkles -->
        <g stroke="white" stroke-width="2" fill="white">
            <!-- Large sparkle -->
            <path d="M30 4 L32 6 L30 8 L28 6 Z"/>
            
            <!-- Medium sparkle -->
            <path d="M2 22 L4 24 L2 26 L0 24 Z"/>
            
            <!-- Small sparkles -->
            <circle cx="32" cy="14" r="1"/>
            <circle cx="8" cy="2" r="1"/>
            <circle cx="4" cy="32" r="1.2"/>
            <circle cx="30" cy="30" r="0.8"/>
            
            <!-- Additional decorative sparkles -->
            <path d="M12 4 L13 5 L12 6 L11 5 Z"/>
            <path d="M34 20 L35 21 L34 22 L33 21 Z"/>
        </g>
        
        <!-- Wand handle detail -->
        <circle cx="6" cy="28" r="1.5" fill="white" opacity="0.8"/>
    </g>
</svg>
